<?xml version="1.0" encoding="utf-8"?>
<!-- Generator: Adobe Illustrator 19.0.0, SVG Export Plug-In . SVG Version: 6.00 Build 0)  -->
<svg version="1.1" id="Layer_1" xmlns="http://www.w3.org/2000/svg" xmlns:xlink="http://www.w3.org/1999/xlink" x="0px" y="0px"
	 viewBox="-255 347 100 100" style="enable-background:new -255 347 100 100;" xml:space="preserve">
<style type="text/css">
	.st0{fill:#B41F2E;}
</style>
<g>
	<path class="st0" d="M-175.5,381.5c0.7,0,1.4-0.3,1.9-0.8l0,0c0.9-1,0.8-2.6-0.2-3.5c-1-0.9-2.6-0.8-3.5,0.2
		c-0.9,1-0.9,2.6,0.2,3.5C-176.7,381.3-176.1,381.5-175.5,381.5z M-182.4,382.8c-0.9,1-0.9,2.6,0.2,3.5c0.5,0.4,1.1,0.7,1.7,0.7
		c0.7,0,1.4-0.3,1.8-0.8l0-0.1c0.9-1,0.8-2.6-0.2-3.5C-179.8,381.7-181.4,381.8-182.4,382.8z M-233.6,377.3c-0.9-1-2.5-1.1-3.5-0.2
		c-1,0.9-1.1,2.5-0.2,3.6c0.5,0.5,1.2,0.8,1.9,0.8c0.6,0,1.2-0.2,1.7-0.6C-232.8,379.9-232.7,378.3-233.6,377.3L-233.6,377.3z
		 M-230.5,387c0.6,0,1.2-0.2,1.7-0.7c1-0.9,1.1-2.5,0.2-3.5l0-0.1c-0.9-1-2.5-1.1-3.5-0.1c-1,0.9-1.1,2.5-0.1,3.6
		C-231.8,386.7-231.2,387-230.5,387z M-209.7,434.6c-11.9-2.1-20.2-12.1-20.4-23.7l4.9,0.9l-6.6-12.2l-10.3,9.3l5,0.9
		c-0.4,15.5,10.5,29.1,26.2,31.8c12.9,2.2,25.7-3.6,32.5-14.9l-6-3.6C-189.7,431.8-199.6,436.4-209.7,434.6z M-200.1,379.3
		c-12.8-2.2-25.8,3.8-32.5,14.9l6,3.6c5.2-8.6,15.4-13.3,25.3-11.6c11.9,2.1,20.2,12.1,20.4,23.7l-5-0.9l6.6,12.2l10.3-9.3l-5-0.9
		C-173.5,395.6-184.4,382-200.1,379.3z"/>
	<circle class="st0" cx="-175" cy="358.5" r="6.5"/>
	<path class="st0" d="M-162.5,370c0-2.7-4.5-5-10.1-5h-2.4h-2.4c-5.6,0-10.1,2.3-10.1,5v0l0,0v5h25V370L-162.5,370L-162.5,370z"/>
	<circle class="st0" cx="-205" cy="358.5" r="6.5"/>
	<path class="st0" d="M-192.5,375v-5l0,0v0c0-2.7-4.5-5-10.1-5h-2.4h-2.4c-5.6,0-10.1,2.3-10.1,5v0l0,0v5H-192.5z"/>
	<circle class="st0" cx="-235" cy="358.5" r="6.5"/>
	<path class="st0" d="M-222.5,375v-5l0,0v0c0-2.7-4.5-5-10.1-5h-2.4h-2.4c-5.6,0-10.1,2.3-10.1,5v0l0,0v5H-222.5z M-222.5,415.3
		L-222.5,415.3l0,7.7h13.1l2.7-6.3l-3.6-4.7h9.6l-3.6,4.7l2.7,6.3h13.1v-7.7h0c-0.3-3.5-6.3-6.4-13.7-6.4h-2.1
		c4.4-0.6,7.9-4.3,7.9-8.9c0-5-4-9-9-9s-9,4-9,9c0,4.6,3.4,8.4,7.9,8.9h-2.1C-216.1,408.9-222.2,411.7-222.5,415.3z"/>
</g>
</svg>
