<svg id="SvgjsSvg1001" width="288" height="288" xmlns="http://www.w3.org/2000/svg" version="1.1" xmlns:xlink="http://www.w3.org/1999/xlink" xmlns:svgjs="http://svgjs.com/svgjs"><defs id="SvgjsDefs1002"></defs><g id="SvgjsG1008" transform="matrix(0.9167,0,0,0.9167,11.99516223201124,11.990140221335736)"><!--?xml version="1.0" encoding="UTF-8"?--><svg xmlns="http://www.w3.org/2000/svg" xmlns:xlink="http://www.w3.org/1999/xlink" viewBox="0 0 50 50" version="1.1" width="288" height="288"><path d="M28.875 0a.466.466 0 0 0-.063.031l-28 5.282a1 1 0 0 0-.812 1v37.28a1 1 0 0 0 .813 1l28 5.376c.289.054.59-.02.82-.207.226-.188.363-.465.367-.762v-7.094c.352.059.684.094 1 .094a5.989 5.989 0 0 0 6-5.75 12.258 12.258 0 0 0 6.344-5.281c.21.023.437.031.656.031 3.3 0 6-2.7 6-6s-2.7-6-6-6c-.195 0-.402.012-.594.031a12.226 12.226 0 0 0-6.437-5.375A5.963 5.963 0 0 0 31 8c-.336 0-.668.008-1 .063V1a1.004 1.004 0 0 0-1.125-1zM28 2.188v45.624l-26-5.03V7.124zM31 10c2.277 0 4 1.723 4 4s-1.723 4-4 4c-.324 0-.684-.043-1-.125v-7.75c.29-.082.602-.125 1-.125zm-16.406 5.406c-1 0-1.883.082-2.781.281-.899.2-1.614.602-2.313 1-.7.5-1.195 1.02-1.594 1.72-.398.698-.593 1.5-.593 2.5 0 1.198.394 2.195 1.093 3.093.7.898 1.79 1.586 3.188 2.188.601.3 1.094.519 1.594.718.5.2.914.489 1.312.688.3.3.613.511.813.812.199.301.28.602.28 1 0 .2-.085.489-.187.688-.101.199-.293.394-.594.593-.3.2-.601.305-1 .407-.398.101-.906.093-1.406.093-.898 0-1.695-.199-2.594-.5a7.18 7.18 0 0 1-2.406-1.375v4.094c.602.301 1.383.586 2.282.688.898.199 1.906.312 2.906.312 1 0 1.914-.113 2.812-.312.899-.2 1.582-.508 2.281-.907.7-.398 1.227-.988 1.625-1.687.301-.7.493-1.492.594-2.594 0-.699-.113-1.304-.312-1.906-.301-.602-.602-1.102-1-1.5a4.374 4.374 0 0 0-1.5-1.188c-.602-.398-1.301-.699-2-1-.5-.199-1.008-.425-1.406-.625-.399-.199-.793-.394-1.094-.593-.301-.2-.489-.489-.688-.688-.101-.199-.219-.511-.219-.812 0-.301.118-.582.22-.782.1-.199.292-.425.593-.625.3-.199.602-.273 1-.375.398-.101.813-.125 1.313-.125.398 0 .695.024 1.093.125.301 0 .696.086 1.094.188.398.102.695.207 1.094.406.398.2.699.395 1 .594v-3.906c-.602-.2-1.301-.399-2-.5-.7-.102-1.5-.188-2.5-.188zm22.156.281a10.21 10.21 0 0 1 4.656 3.907C39.395 20.566 38 22.625 38 25c0 2.348 1.367 4.39 3.344 5.375a10.17 10.17 0 0 1-4.625 3.844A5.98 5.98 0 0 0 31 30c-.336 0-.668.008-1 .063V19.905c.352.059.684.094 1 .094a5.978 5.978 0 0 0 5.75-4.313zM44 21c2.223 0 4 1.777 4 4s-1.777 4-4 4-4-1.777-4-4 1.777-4 4-4zM31 32c2.277 0 4 1.723 4 4s-1.723 4-4 4c-.324 0-.684-.043-1-.125v-7.75c.29-.082.602-.125 1-.125z" id="surface1" fill="#006dc4" class="color000 svgShape"></path><metadata><rdf:rdf xmlns:rdf="http://www.w3.org/1999/02/22-rdf-syntax-ns#" xmlns:rdfs="http://www.w3.org/2000/01/rdf-schema#" xmlns:dc="http://purl.org/dc/elements/1.1/"><rdf:description about="https://iconscout.com/legal#licenses" dc:title="microsoft,sharepoint" dc:description="microsoft,sharepoint" dc:publisher="Iconscout" dc:date="2017-12-09" dc:format="image/svg+xml" dc:language="en"><dc:creator><rdf:bag><rdf:li>Icons8</rdf:li></rdf:bag></dc:creator></rdf:description></rdf:rdf></metadata></svg></g></svg>